#Comment line ignore any data following # character 
#Hierarchical Translation and Rotation (.htr) file 
[Header]	
#Header keywords are followed by a single value 
FileType HTR		#Single word string
DataType HTRS		#Translation followed by rotation and scale data
FileVersion 1		#integer
NumSegments 25		#integer
NumFrames 4		#integer
DataFrameRate 30		#integer, data frame rate in this file
EulerRotationOrder ZYX
CalibrationUnits mm
RotationUnits Degrees
GlobalAxisofGravity Y
BoneLengthAxis Y
ScaleFactor 1.00
[SegmentNames&Hierarchy]
#CHILD	PARENT
BN_Tick_Root GLOBAL
BN_Torso BN_Tick_Root
BN_L_Leg_Front01 BN_Torso
BN_L_Leg_Rear01 BN_Torso
BN_MetalTop BN_Torso
BN_Neck BN_Torso
BN_R_Leg_Front01 BN_Torso
BN_R_Leg_Rear01 BN_Torso
BN_Sack BN_Torso
BN_L_Leg_Front02 BN_L_Leg_Front01
BN_L_Leg_Front03 BN_L_Leg_Front02
BN_L_Leg_Rear02 BN_L_Leg_Rear01
BN_L_Leg_Rear03 BN_L_Leg_Rear02
BN_Head BN_Neck
BN_Needle BN_Head
BN_R_Leg_Front02 BN_R_Leg_Front01
BN_R_Leg_Front03 BN_R_Leg_Front02
BN_R_Leg_Rear02 BN_R_Leg_Rear01
BN_R_Leg_Rear03 BN_R_Leg_Rear02
BN_SackDef01 BN_Sack
BN_SackDef02 BN_Sack
BN_SackDef03 BN_Sack
BN_SackDef04 BN_Sack
BN_SackDef05 BN_Sack
BN_SackDef06 BN_Sack
[BasePosition]
#SegmentName Tx, Ty, Tz, Rx, Ry, Rz, BoneLength
BN_Tick_Root 0.000000 0.000000 0.000000 -90.000000 0.000000 0.000000 10.000000 
BN_Torso 0.000000 0.000000 0.000000 0.000000 0.000000 0.000000 10.000000 
BN_L_Leg_Front01 0.000000 0.000000 0.000000 0.000000 0.000000 0.000000 10.000000 
BN_L_Leg_Rear01 0.000000 0.000000 0.000000 0.000000 0.000000 0.000000 10.000000 
BN_MetalTop 0.000000 0.000000 0.000000 0.000000 0.000000 0.000000 10.000000 
BN_Neck 0.000000 0.000000 0.000000 0.000000 0.000000 0.000000 10.000000 
BN_R_Leg_Front01 0.000000 0.000000 0.000000 0.000000 0.000000 0.000000 10.000000 
BN_R_Leg_Rear01 0.000000 0.000000 0.000000 0.000000 0.000000 0.000000 10.000000 
BN_Sack 0.000000 0.000000 0.000000 0.000000 0.000000 0.000000 10.000000 
BN_L_Leg_Front02 0.000000 0.000000 0.000000 0.000000 0.000000 0.000000 10.000000 
BN_L_Leg_Front03 0.000000 0.000000 0.000000 0.000000 0.000000 0.000000 10.000000 
BN_L_Leg_Rear02 0.000000 0.000000 0.000000 0.000000 0.000000 0.000000 10.000000 
BN_L_Leg_Rear03 0.000000 0.000000 0.000000 0.000000 0.000000 0.000000 10.000000 
BN_Head 0.000000 0.000000 0.000000 0.000000 0.000000 0.000000 10.000000 
BN_Needle 0.000000 0.000000 0.000000 0.000000 0.000000 0.000000 10.000000 
BN_R_Leg_Front02 0.000000 0.000000 0.000000 0.000000 0.000000 0.000000 10.000000 
BN_R_Leg_Front03 0.000000 0.000000 0.000000 0.000000 0.000000 0.000000 10.000000 
BN_R_Leg_Rear02 0.000000 0.000000 0.000000 0.000000 0.000000 0.000000 10.000000 
BN_R_Leg_Rear03 0.000000 0.000000 0.000000 0.000000 0.000000 0.000000 10.000000 
BN_SackDef01 0.000000 0.000000 0.000000 0.000000 0.000000 0.000000 10.000000 
BN_SackDef02 0.000000 0.000000 0.000000 0.000000 0.000000 0.000000 10.000000 
BN_SackDef03 0.000000 0.000000 0.000000 0.000000 0.000000 0.000000 10.000000 
BN_SackDef04 0.000000 0.000000 0.000000 0.000000 0.000000 0.000000 10.000000 
BN_SackDef05 0.000000 0.000000 0.000000 0.000000 0.000000 0.000000 10.000000 
BN_SackDef06 0.000000 0.000000 0.000000 0.000000 0.000000 0.000000 10.000000 
#Beginning of Data. Separated by tabs
#Fr	Tx	Ty	Tz	Rx	Ry	Rz	SF
[BN_Tick_Root]
7 0.000000 -800.000183 0.000000 0.000000 0.000000 -0.000020 800.000183
8 0.000000 -933.333435 0.000000 0.000000 0.000000 -0.000020 933.333435
9 0.000000 -1066.666870 0.000000 0.000000 0.000000 -0.000020 1066.666870
10 0.000000 -1200.000000 0.000000 0.000000 0.000000 -0.000020 1200.000000
[BN_Torso]
7 -8.837925 37.682770 183.847702 13.247072 -0.477081 1.121329 187.877823
8 -19.051107 41.002041 171.193192 13.246876 -2.140305 1.120240 177.062759
9 -20.886406 55.835606 169.630234 13.246710 -3.803528 1.119154 179.800644
10 -19.673832 62.119720 192.668243 13.246792 -2.971961 1.119697 203.388718
[BN_L_Leg_Front01]
7 -68.477791 10.734189 -26.804373 3.777959 18.800905 146.811386 74.316254
8 -68.477791 10.734189 -26.804373 18.793446 -9.666280 162.254562 74.316254
9 -68.477791 10.734189 -26.804373 -5.590394 -12.539162 -160.274963 74.316254
10 -68.477791 10.734189 -26.804373 -12.367982 10.976142 -136.833572 74.316254
[BN_L_Leg_Rear01]
7 -72.133743 -73.994843 -18.268616 142.321548 21.681147 -126.172379 104.939293
8 -72.133743 -73.994843 -18.268616 135.276825 19.424213 -140.185898 104.939293
9 -72.133743 -73.994843 -18.268616 141.290955 15.487513 -162.824188 104.939293
10 -72.133743 -73.994843 -18.268616 114.423805 -4.841135 -173.650558 104.939293
[BN_MetalTop]
7 0.000008 13.737477 26.403606 89.073105 -9.941887 -91.373589 29.763546
8 0.000008 13.737477 26.403606 88.371338 -12.312387 -88.116875 29.763546
9 0.000008 13.737477 26.403606 87.891937 -14.949751 -86.050133 29.763546
10 0.000008 13.737477 26.403606 87.192535 -17.349434 -83.694855 29.763546
[BN_Neck]
7 0.000014 95.233284 10.002091 -89.999672 -65.297531 89.999657 95.757088
8 0.000014 95.233284 10.002091 -89.999672 -65.297531 89.999657 95.757088
9 0.000014 95.233284 10.002091 -89.999672 -65.297531 89.999657 95.757088
10 0.000014 95.233284 10.002091 -89.999672 -65.297531 89.999657 95.757088
[BN_R_Leg_Front01]
7 68.477768 10.734107 -26.804314 12.263721 8.139261 -43.792862 74.316193
8 68.477768 10.734107 -26.804314 -13.734146 17.129223 -24.573849 74.316193
9 68.477768 10.734107 -26.804314 -20.169054 18.991480 1.538564 74.316193
10 68.477768 10.734107 -26.804314 -3.775114 18.798374 33.189018 74.316193
[BN_R_Leg_Rear01]
7 72.133751 -73.994873 -18.268644 -112.581558 -10.310430 -5.319750 104.939331
8 72.133751 -73.994873 -18.268644 -127.289513 -1.445992 -28.808943 104.939331
9 72.133751 -73.994873 -18.268644 -107.447845 17.889828 -61.518997 104.939331
10 72.133751 -73.994873 -18.268644 -142.318573 21.679100 -53.828064 104.939331
[BN_Sack]
7 -0.000000 -78.024918 33.657791 88.623184 -3.228799 -91.160919 84.974907
8 -0.000000 -78.024918 33.657791 88.144531 -5.434347 -86.671242 84.974907
9 -0.000000 -78.024918 33.657791 87.851479 -8.059901 -84.457520 84.974907
10 -0.000000 -78.024918 33.657791 87.375633 -10.447134 -81.983025 84.974907
[BN_L_Leg_Front02]
7 142.805023 -0.000015 -0.000104 -92.531059 1.480624 -44.853252 142.805023
8 142.805023 -0.000015 -0.000104 -151.219986 -53.602661 -21.744413 142.805023
9 142.805023 -0.000015 -0.000104 -97.062263 -42.826366 -125.086052 142.805023
10 142.805023 -0.000015 -0.000104 -75.602356 9.147496 -132.667282 142.805023
[BN_L_Leg_Front03]
7 124.143021 -0.000045 0.000007 0.351931 -0.275304 37.732410 124.143021
8 124.143021 -0.000045 0.000007 0.353074 -0.414839 113.104866 124.143021
9 124.143021 -0.000045 0.000007 0.352259 -0.316274 135.006332 124.143021
10 124.143021 -0.000045 0.000007 0.353965 -0.265934 143.819901 124.143021
[BN_L_Leg_Rear02]
7 139.939041 0.000075 -0.000022 -2.544175 -14.626459 88.464645 139.939041
8 139.939041 0.000075 -0.000022 -35.882530 -25.847349 123.475098 139.939041
9 139.939041 0.000075 -0.000022 -51.731857 7.690414 89.109901 139.939041
10 139.939041 0.000075 -0.000022 -20.019077 38.382301 41.410629 139.939041
[BN_L_Leg_Rear03]
7 142.839615 0.000179 -0.000060 0.000383 -0.002316 -108.782524 142.839615
8 142.839615 0.000179 -0.000060 0.000826 -0.002197 -131.188950 142.839615
9 142.839615 0.000179 -0.000060 0.000725 -0.002233 -125.973877 142.839615
10 142.839615 0.000179 -0.000060 0.000834 -0.002194 -131.612213 142.839615
[BN_Head]
7 57.062447 -0.000030 0.000000 -0.237838 1.017403 37.502544 57.062447
8 57.062447 -0.000030 0.000000 0.881207 2.249264 37.540920 57.062447
9 57.062447 -0.000030 0.000000 2.002283 3.480141 37.603436 57.062447
10 57.062447 -0.000030 0.000000 1.441455 2.864888 37.569160 57.062447
[BN_Needle]
7 33.915161 69.677544 -0.000060 0.000003 0.000030 87.896805 77.493217
8 33.915161 69.677544 -0.000060 0.000003 0.000030 87.896805 77.493217
9 33.915161 69.677544 -0.000060 0.000003 0.000030 87.896805 77.493217
10 33.915161 69.677544 -0.000060 0.000003 0.000030 87.896805 77.493217
[BN_R_Leg_Front02]
7 142.804947 -0.000060 0.000060 71.658043 4.915299 125.019142 142.804947
8 142.804947 -0.000060 0.000060 57.809910 -34.558678 120.352974 142.804947
9 142.804947 -0.000060 0.000060 76.255096 -38.504421 82.450653 142.804947
10 142.804947 -0.000060 0.000060 109.567474 -0.877641 25.131783 142.804947
[BN_R_Leg_Front03]
7 124.143005 -0.000060 -0.000156 -0.353762 -0.312249 -135.993149 124.143005
8 124.143005 -0.000060 -0.000156 -0.351115 -0.369865 -124.104591 124.143005
9 124.143005 -0.000060 -0.000156 -0.350772 -0.444317 -98.077492 124.143005
10 124.143005 -0.000060 -0.000156 -0.353538 -0.353498 -52.289066 124.143005
[BN_R_Leg_Rear02]
7 139.939011 -0.000149 0.000015 28.470427 28.225296 -20.304592 139.939011
8 139.939011 -0.000149 0.000015 21.228476 31.256424 -43.706173 139.939011
9 139.939011 -0.000149 0.000015 -29.996275 -17.236822 -36.172119 139.939011
10 139.939011 -0.000149 0.000015 -3.361060 -13.065238 -68.801071 139.939011
[BN_R_Leg_Rear03]
7 142.839417 0.000075 0.000119 0.002272 -0.000588 119.019096 142.839417
8 142.839417 0.000075 0.000119 0.002322 -0.000344 106.850456 142.839417
9 142.839417 0.000075 0.000119 0.002166 0.000904 44.676643 142.839417
10 142.839417 0.000075 0.000119 0.002346 -0.000064 93.107956 142.839417
[BN_SackDef01]
7 249.782272 -3.760844 42.949425 -128.408218 -44.374973 -11.740845 253.475800
8 249.782272 -3.760844 42.949425 -128.408218 -44.374973 -11.740845 253.475800
9 249.782272 -3.760844 42.949425 -128.408218 -44.374973 -11.740845 253.475800
10 249.782272 -3.760844 42.949425 -128.408218 -44.374973 -11.740845 253.475800
[BN_SackDef02]
7 138.789795 -62.131748 45.674385 32.077126 -27.375721 -88.781525 158.773758
8 138.789795 -62.131748 45.674385 32.077126 -27.375721 -88.781525 158.773758
9 138.789795 -62.131748 45.674385 32.077126 -27.375721 -88.781525 158.773758
10 138.789795 -62.131748 45.674385 32.077126 -27.375721 -88.781525 158.773758
[BN_SackDef03]
7 249.782272 -3.760785 -42.949661 18.144459 44.375008 -11.740894 253.475845
8 249.782272 -3.760785 -42.949661 18.144459 44.375008 -11.740894 253.475845
9 249.782272 -3.760785 -42.949661 18.144459 44.375008 -11.740894 253.475845
10 249.782272 -3.760785 -42.949661 18.144459 44.375008 -11.740894 253.475845
[BN_SackDef04]
7 138.789780 -62.131645 -45.674473 146.059982 27.375723 -88.781555 158.773743
8 138.789780 -62.131645 -45.674473 146.059982 27.375723 -88.781555 158.773743
9 138.789780 -62.131645 -45.674473 146.059982 27.375723 -88.781555 158.773743
10 138.789780 -62.131645 -45.674473 146.059982 27.375723 -88.781555 158.773743
[BN_SackDef05]
7 118.790161 46.167137 -63.831196 0.155741 51.314110 90.605110 142.537460
8 118.790161 46.167137 -63.831196 0.155741 51.314110 90.605110 142.537460
9 118.790161 46.167137 -63.831196 0.155741 51.314110 90.605110 142.537460
10 118.790161 46.167137 -63.831196 0.155741 51.314110 90.605110 142.537460
[BN_SackDef06]
7 118.790207 46.167194 63.831219 152.058487 -51.314072 90.605019 142.537537
8 118.790207 46.167194 63.831219 152.058487 -51.314072 90.605019 142.537537
9 118.790207 46.167194 63.831219 152.058487 -51.314072 90.605019 142.537537
10 118.790207 46.167194 63.831219 152.058487 -51.314072 90.605019 142.537537
